<svg xmlns="http://www.w3.org/2000/svg" xmlns:xlink="http://www.w3.org/1999/xlink" width="146" height="141" version="1.1" viewBox="0 0 146 141"><title>cirrus-logo</title><g id="Page-1" fill="none" fill-rule="evenodd" stroke="none" stroke-linecap="round" stroke-width="1"><g id="cirrus-logo" stroke="#FAFAFA" stroke-width="13.5" transform="translate(7.000000, 7.000000)"><path id="Shape" fill="#000" fill-rule="nonzero" d="M0,126.494118 L111,126.494118"/><path id="Shape" d="M111,126.494118 C122.59798,126.494118 132,117.055227 132,105.411765 C132,93.7683027 122.59798,84.3294118 111,84.3294118"/><path id="Shape" fill="#000" fill-rule="nonzero" d="M0,84.3294118 L111,84.3294118"/><path id="Shape" d="M111,84.3294118 C122.59798,84.3294118 132,74.8905208 132,63.2470588 C132,51.6035968 122.59798,42.1647059 111,42.1647059"/><path id="Shape" fill="#000" fill-rule="nonzero" d="M0,42.1647059 L111,42.1647059"/><path id="Shape" d="M111,42.1647059 C122.59798,42.1647057 132,32.7258148 132,21.0823529 C132,9.43889104 122.59798,1.73501101e-07 111,-3.55271368e-15"/></g></g></svg>